<svg width="15" height="13" viewBox="0 0 15 13" fill="none" xmlns="http://www.w3.org/2000/svg">
<path d="M2.87211 7.7579V5.4617H10.8412L10.5016 6.0442C10.5016 5.9844 10.5016 5.9284 10.5016 5.8762C10.5016 5.8164 10.5016 5.7604 10.5016 5.7082C10.5016 5.2825 10.3997 4.8755 10.1959 4.4872C9.99221 4.0915 9.67521 3.7704 9.24511 3.524C8.82251 3.2701 8.27911 3.1431 7.61501 3.1431C6.95091 3.1431 6.37741 3.285 5.89441 3.5688C5.41901 3.8451 5.05301 4.2446 4.79641 4.7673C4.54741 5.29 4.4229 5.921 4.4229 6.6602C4.4229 7.4219 4.54361 8.0753 4.78511 8.6204C5.03411 9.1581 5.40011 9.5725 5.88311 9.8637C6.37361 10.1549 6.9811 10.3006 7.7056 10.3006C8.1735 10.3006 8.57721 10.2595 8.91681 10.1774C9.25641 10.0877 9.53191 9.9757 9.74321 9.8413C9.96201 9.7069 10.128 9.5576 10.2412 9.3933C10.3544 9.229 10.4223 9.0685 10.445 8.9116H13.9088C13.8635 9.4119 13.69 9.9048 13.3881 10.3902C13.0863 10.8681 12.6674 11.3012 12.1316 11.6895C11.5958 12.0703 10.9431 12.3727 10.1733 12.5968C9.41111 12.8208 8.53951 12.9328 7.55841 12.9328C6.23031 12.9328 5.07191 12.6714 4.08331 12.1487C3.09471 11.6185 2.32871 10.8905 1.78541 9.9645C1.24201 9.0311 0.970306 7.9558 0.970306 6.7386C0.970306 5.5065 1.24581 4.4275 1.79671 3.5016C2.35511 2.5681 3.12861 1.8438 4.11721 1.3286C5.11341 0.805802 6.26421 0.544502 7.56981 0.544502C8.90551 0.544502 10.0601 0.809602 11.0336 1.3398C12.0071 1.8625 12.758 2.598 13.2862 3.5464C13.8145 4.4872 14.0786 5.5849 14.0786 6.8395C14.0786 7.0261 14.0748 7.2054 14.0673 7.3771C14.0598 7.5488 14.0484 7.6758 14.0333 7.7579H2.87211Z" fill="white"/>
</svg>
