<svg width="14" height="18" viewBox="0 0 14 18" fill="none" xmlns="http://www.w3.org/2000/svg">
<path d="M7.505 17.9216C6.5541 17.9216 5.6825 17.6714 4.8901 17.1711C4.0977 16.6708 3.4638 15.995 2.9884 15.1437C2.513 14.285 2.2753 13.3217 2.2753 12.2539C2.2753 12.224 2.2753 12.1979 2.2753 12.1755C2.2753 12.1456 2.2753 12.112 2.2753 12.0747L3.7921 12.0411C3.7921 12.0635 3.7921 12.0859 3.7921 12.1083C3.7921 12.1307 3.7921 12.1531 3.7921 12.1755C3.7921 12.7281 3.9279 13.2134 4.1996 13.6316C4.4713 14.0423 4.8222 14.3597 5.2523 14.5837C5.6825 14.8077 6.1315 14.9197 6.5994 14.9197C7.3691 14.9197 8.037 14.6584 8.603 14.1357C9.1765 13.6055 9.4633 12.7803 9.4633 11.6602C9.4633 10.5401 9.1803 9.7262 8.6143 9.2184C8.0483 8.7032 7.3767 8.4456 6.5994 8.4456C6.1315 8.4456 5.6825 8.5576 5.2523 8.7816C4.8222 8.9981 4.4713 9.308 4.1996 9.7113C3.9279 10.1145 3.7921 10.5961 3.7921 11.1562L2.2753 11.0666C2.2753 9.9913 2.513 9.0429 2.9884 8.2215C3.4638 7.3927 4.0977 6.743 4.8901 6.2726C5.6825 5.7946 6.5541 5.5557 7.505 5.5557C8.4785 5.5557 9.3878 5.7909 10.233 6.2614C11.0783 6.7318 11.7612 7.4225 12.2819 8.3335C12.8102 9.2446 13.0743 10.3535 13.0743 11.6602C13.0743 13.0268 12.8177 14.1767 12.3046 15.1101C11.7914 16.0361 11.1122 16.738 10.267 17.2159C9.4218 17.6864 8.5011 17.9216 7.505 17.9216ZM0.271698 17.664V0.156811H3.7921V17.664H0.271698Z" fill="white"/>
</svg>
