<svg width="11" height="18" viewBox="0 0 11 18" fill="none" xmlns="http://www.w3.org/2000/svg">
<path d="M3.183 17.664V8.4568H0.681V5.7685H3.183V4.9508C3.183 4.1593 3.288 3.4835 3.5 2.92346C3.718 2.35594 4.013 1.8855 4.383 1.51213C4.752 1.1313 5.167 0.83261 5.628 0.61605C6.096 0.39203 6.575 0.23522 7.065 0.14561C7.563 0.0485399 8.046 0 8.514 0C9.012 0 9.382 0.0298701 9.624 0.0896101C9.873 0.14188 10.039 0.18668 10.122 0.22402V2.92346C10.031 2.89359 9.869 2.85999 9.635 2.82265C9.409 2.78531 9.163 2.76665 8.899 2.76665C8.461 2.76665 8.099 2.82265 7.812 2.93466C7.526 3.0467 7.299 3.211 7.133 3.4275C6.967 3.6366 6.85 3.8867 6.782 4.178C6.714 4.4617 6.68 4.7716 6.68 5.1077V5.7685H9.907V8.4568H6.68V17.664H3.183Z" fill="white"/>
</svg>
