<svg width="14" height="13" viewBox="0 0 14 13" fill="none" xmlns="http://www.w3.org/2000/svg">
<path d="M7.27299 12.9216C5.975 12.9216 4.83199 12.6565 3.84399 12.1263C2.85499 11.5961 2.081 10.8681 1.52299 9.9421C0.971995 9.0087 0.696991 7.9334 0.696991 6.7162C0.696991 5.5065 0.971995 4.4387 1.52299 3.5128C2.081 2.5793 2.85499 1.855 3.84399 1.3398C4.83199 0.817102 5.975 0.555702 7.27299 0.555702C8.57099 0.555702 9.715 0.817102 10.703 1.3398C11.692 1.855 12.462 2.5793 13.013 3.5128C13.571 4.4387 13.85 5.5065 13.85 6.7162C13.85 7.9334 13.571 9.0087 13.013 9.9421C12.462 10.8681 11.692 11.5961 10.703 12.1263C9.715 12.6565 8.57099 12.9216 7.27299 12.9216ZM7.27299 10.1661C7.88499 10.1661 8.417 10.0243 8.87 9.7405C9.32199 9.4568 9.67299 9.0573 9.92199 8.542C10.171 8.0193 10.296 7.4107 10.296 6.7162C10.296 6.0218 10.171 5.4207 9.92199 4.9129C9.67299 4.3976 9.32199 4.0019 8.87 3.7256C8.417 3.4493 7.88499 3.3111 7.27299 3.3111C6.66999 3.3111 6.13799 3.4493 5.67699 3.7256C5.22499 4.0019 4.87399 4.3976 4.62499 4.9129C4.37599 5.4207 4.25099 6.0218 4.25099 6.7162C4.25099 7.4107 4.37599 8.0193 4.62499 8.542C4.87399 9.0573 5.22499 9.4568 5.67699 9.7405C6.13799 10.0243 6.66999 10.1661 7.27299 10.1661Z" fill="white"/>
</svg>
