<svg width="56" height="56" viewBox="0 0 56 56" fill="none" xmlns="http://www.w3.org/2000/svg">
<path d="M27.9993 30.3332C29.288 30.3332 30.3327 29.2885 30.3327 27.9999C30.3327 26.7112 29.288 25.6665 27.9993 25.6665C26.7107 25.6665 25.666 26.7112 25.666 27.9999C25.666 29.2885 26.7107 30.3332 27.9993 30.3332Z" stroke="#D8D8EB" stroke-width="3" stroke-linecap="round" stroke-linejoin="round"/>
<path d="M28.0007 39.6668C34.444 39.6668 39.6673 34.4434 39.6673 28.0001C39.6673 21.5568 34.444 16.3335 28.0007 16.3335C21.5573 16.3335 16.334 21.5568 16.334 28.0001C16.334 34.4434 21.5573 39.6668 28.0007 39.6668Z" stroke="#D8D8EB" stroke-width="3" stroke-linecap="round" stroke-linejoin="round"/>
<path d="M28 49C39.598 49 49 39.598 49 28C49 16.402 39.598 7 28 7C16.402 7 7 16.402 7 28C7 39.598 16.402 49 28 49Z" stroke="#D8D8EB" stroke-width="3" stroke-linecap="round" stroke-linejoin="round"/>
</svg>
