<svg width="56" height="56" viewBox="0 0 56 56" fill="none" xmlns="http://www.w3.org/2000/svg">
<path d="M14 32.6665H9.33333C8.04467 32.6665 7 33.7112 7 34.9999V39.6665C7 40.9552 8.04467 41.9999 9.33333 41.9999H14C15.2887 41.9999 16.3333 40.9552 16.3333 39.6665V34.9999C16.3333 33.7112 15.2887 32.6665 14 32.6665Z" stroke="#D8D8EB" stroke-width="3" stroke-linecap="round" stroke-linejoin="round"/>
<path d="M46.666 32.6665H41.9993C40.7107 32.6665 39.666 33.7112 39.666 34.9999V39.6665C39.666 40.9552 40.7107 41.9999 41.9993 41.9999H46.666C47.9547 41.9999 48.9993 40.9552 48.9993 39.6665V34.9999C48.9993 33.7112 47.9547 32.6665 46.666 32.6665Z" stroke="#D8D8EB" stroke-width="3" stroke-linecap="round" stroke-linejoin="round"/>
<path d="M30.334 14H25.6673C24.3787 14 23.334 15.0447 23.334 16.3333V21C23.334 22.2887 24.3787 23.3333 25.6673 23.3333H30.334C31.6226 23.3333 32.6673 22.2887 32.6673 21V16.3333C32.6673 15.0447 31.6226 14 30.334 14Z" stroke="#D8D8EB" stroke-width="3" stroke-linecap="round" stroke-linejoin="round"/>
<path d="M23.3327 19.8335C20.2288 20.3502 17.3894 21.8976 15.2728 24.2259C13.1561 26.5543 11.8855 29.5278 11.666 32.6668" stroke="#D8D8EB" stroke-width="3" stroke-linecap="round" stroke-linejoin="round"/>
<path d="M32.666 19.8335C35.7699 20.3502 38.6093 21.8976 40.7259 24.2259C42.8426 26.5543 44.1132 29.5278 44.3327 32.6668" stroke="#D8D8EB" stroke-width="3" stroke-linecap="round" stroke-linejoin="round"/>
<path d="M23.334 18.6665H9.33398" stroke="#D8D8EB" stroke-width="3" stroke-linecap="round" stroke-linejoin="round"/>
<path d="M46.666 18.6665H32.666" stroke="#D8D8EB" stroke-width="3" stroke-linecap="round" stroke-linejoin="round"/>
<path d="M6.99935 21.0001C8.28801 21.0001 9.33268 19.9554 9.33268 18.6668C9.33268 17.3781 8.28801 16.3335 6.99935 16.3335C5.71068 16.3335 4.66602 17.3781 4.66602 18.6668C4.66602 19.9554 5.71068 21.0001 6.99935 21.0001Z" stroke="#D8D8EB" stroke-width="3" stroke-linecap="round" stroke-linejoin="round"/>
<path d="M48.9993 21.0001C50.288 21.0001 51.3327 19.9554 51.3327 18.6668C51.3327 17.3781 50.288 16.3335 48.9993 16.3335C47.7107 16.3335 46.666 17.3781 46.666 18.6668C46.666 19.9554 47.7107 21.0001 48.9993 21.0001Z" stroke="#D8D8EB" stroke-width="3" stroke-linecap="round" stroke-linejoin="round"/>
</svg>
