<svg width="120" height="10" viewBox="0 0 120 10" fill="none" xmlns="http://www.w3.org/2000/svg">
<path d="M1 4.99998C7 -0.333325 13 -0.333325 19 4.99998C25 10.3333 31 10.3333 37 4.99998C43 -0.333325 49 -0.333325 55 4.99998C61 10.3333 67 10.3333 73 4.99998C79 -0.333325 85 -0.333325 91 4.99998C97 10.3333 103 10.3333 109 4.99998C115 -0.333325 121 -0.333325 127 4.99998C133 10.3333 139 10.3333 145 4.99998C151 -0.333325 157 -0.333325 163 4.99998C169 10.3333 175 10.3333 181 4.99998" stroke="#D8D8EB" stroke-width="2"/>
</svg>
