<svg width="150" height="40" viewBox="0 0 150 40" fill="none" xmlns="http://www.w3.org/2000/svg">
<path d="M50.944 28.8053C50.2681 28.8422 49.5995 28.6489 49.0462 28.2567C48.8151 28.0844 48.6291 27.858 48.5043 27.5972C48.3795 27.3362 48.3199 27.0488 48.3303 26.7596V16.1653C48.3249 16.1205 48.3295 16.0749 48.3442 16.0321C48.3587 15.9894 48.3828 15.9506 48.4147 15.9186C48.4465 15.8866 48.485 15.8624 48.5275 15.8478C48.57 15.833 48.6153 15.8284 48.6599 15.8338H50.569C50.7849 15.8338 50.8872 15.9481 50.8872 16.1653V25.9367C50.8872 26.371 51.0803 26.5881 51.4781 26.5881C51.6467 26.5951 51.8153 26.5759 51.9781 26.531C52.2053 26.531 52.3303 26.5996 52.3417 26.8053L52.5122 28.2338C52.5203 28.2756 52.5195 28.3184 52.5099 28.3598C52.5002 28.401 52.4818 28.4399 52.4559 28.4734C52.4301 28.507 52.3974 28.5346 52.3601 28.5544C52.3227 28.5742 52.2816 28.5857 52.2394 28.5881C51.8212 28.7271 51.3843 28.8004 50.944 28.8053Z" fill="#010032"/>
<path d="M61.6812 27.5825C60.722 28.3797 59.5164 28.8157 58.2721 28.8157C57.0278 28.8157 55.8223 28.3797 54.863 27.5825C54.0199 26.7265 53.5469 25.5703 53.5469 24.3654C53.5469 23.1605 54.0199 22.0042 54.863 21.1482C55.8241 20.3552 57.0289 19.9218 58.2721 19.9218C59.5153 19.9218 60.7201 20.3552 61.6812 21.1482C62.5049 22.0121 62.9648 23.1627 62.9648 24.3597C62.9648 25.5566 62.5049 26.7072 61.6812 27.5711V27.5825ZM56.6585 26.0739C57.1037 26.4795 57.6828 26.7041 58.2835 26.7041C58.8841 26.7041 59.4634 26.4795 59.9085 26.0739C60.3114 25.6081 60.5332 25.0114 60.5332 24.3939C60.5332 23.7766 60.3114 23.1799 59.9085 22.7139C59.4634 22.3085 58.8841 22.0838 58.2835 22.0838C57.6828 22.0838 57.1037 22.3085 56.6585 22.7139C56.2556 23.1799 56.0337 23.7766 56.0337 24.3939C56.0337 25.0114 56.2556 25.6081 56.6585 26.0739Z" fill="#010032"/>
<path d="M73.4771 20.2112C73.693 20.2112 73.7953 20.3255 73.7953 20.5426V28.7369C73.8152 29.29 73.7122 29.8406 73.494 30.3486C73.2758 30.8567 72.9479 31.3095 72.5339 31.674C71.6151 32.462 70.4335 32.8704 69.2271 32.8169C68.1375 32.8554 67.0624 32.5562 66.1475 31.9598C65.7569 31.7018 65.4231 31.3657 65.1671 30.9726C64.911 30.5793 64.738 30.1374 64.6589 29.674C64.6589 29.4455 64.6589 29.3426 64.9657 29.3426H66.8748C66.9558 29.3454 67.0345 29.3718 67.101 29.4184C67.1675 29.465 67.2193 29.5299 67.2498 29.6055C67.3737 29.9526 67.6205 30.2416 67.943 30.4169C68.3361 30.6209 68.7736 30.7231 69.2157 30.714C69.4825 30.7288 69.7496 30.6898 70.0013 30.5995C70.253 30.5094 70.4843 30.3695 70.6816 30.1883C70.862 29.9988 71.0022 29.7745 71.094 29.529C71.1858 29.2835 71.2272 29.0218 71.2157 28.7598V28.0398C70.5322 28.5454 69.7003 28.8068 68.8521 28.7826C68.2585 28.8043 67.6666 28.7052 67.112 28.4912C66.5574 28.277 66.0516 27.9526 65.6248 27.5369C64.8056 26.6846 64.3477 25.5454 64.3477 24.3598C64.3477 23.1743 64.8056 22.0351 65.6248 21.1826C66.0537 20.7707 66.5602 20.4494 67.1144 20.2374C67.6687 20.0254 68.2595 19.9271 68.8521 19.9483C69.7248 19.9251 70.5791 20.2035 71.2725 20.7369V20.554C71.2673 20.5103 71.2719 20.4658 71.2858 20.424C71.2998 20.3823 71.3229 20.3441 71.3533 20.3123C71.3838 20.2806 71.421 20.2561 71.462 20.2406C71.5031 20.225 71.5471 20.219 71.5907 20.2226L73.4771 20.2112ZM69.068 26.7483C69.3607 26.7575 69.652 26.7018 69.921 26.5852C70.1899 26.4688 70.4303 26.2943 70.6248 26.074C71.0027 25.5834 71.2077 24.9803 71.2077 24.3598C71.2077 23.7392 71.0027 23.1362 70.6248 22.6455C70.431 22.4283 70.1921 22.2563 69.9252 22.1418C69.6581 22.0273 69.3695 21.973 69.0794 21.9826C68.7832 21.9732 68.4887 22.0287 68.216 22.1451C67.9432 22.2616 67.6989 22.4362 67.4998 22.6569C67.0813 23.1263 66.8612 23.7412 66.8862 24.3712C66.8657 24.995 67.081 25.6034 67.4885 26.074C67.688 26.2942 67.9324 26.4684 68.205 26.5848C68.4777 26.7011 68.772 26.7569 69.068 26.7483Z" fill="#010032"/>
<path d="M83.6028 27.5824C82.6417 28.3754 81.4369 28.8088 80.1937 28.8088C78.9506 28.8088 77.7458 28.3754 76.7847 27.5824C75.9602 26.7166 75.5 25.5641 75.5 24.3653C75.5 23.1665 75.9602 22.014 76.7847 21.1481C77.7467 20.3572 78.9511 19.925 80.1937 19.925C81.4364 19.925 82.6408 20.3572 83.6028 21.1481C84.4266 22.012 84.8865 23.1626 84.8865 24.3596C84.8865 25.5565 84.4266 26.7071 83.6028 27.571V27.5824ZM78.5687 26.0738C78.7866 26.2823 79.0434 26.4452 79.3243 26.553C79.6052 26.6609 79.9045 26.7118 80.2051 26.7024C80.5038 26.7102 80.801 26.6588 81.0799 26.5509C81.3587 26.443 81.6136 26.2809 81.8301 26.0738C82.2265 25.6048 82.4441 25.0094 82.4441 24.3938C82.4441 23.7783 82.2265 23.1829 81.8301 22.7138C81.6136 22.5069 81.3587 22.3447 81.0799 22.2369C80.801 22.129 80.5038 22.0775 80.2051 22.0853C79.9045 22.076 79.6052 22.1268 79.3243 22.2346C79.0434 22.3425 78.7866 22.5055 78.5687 22.7138C78.1725 23.1829 77.9549 23.7783 77.9549 24.3938C77.9549 25.0094 78.1725 25.6048 78.5687 26.0738Z" fill="#010032"/>
<path d="M88.9884 18.2681C88.6881 18.5326 88.3024 18.6783 87.9032 18.6783C87.504 18.6783 87.1184 18.5326 86.818 18.2681C86.6818 18.1389 86.5733 17.983 86.4991 17.8101C86.425 17.6372 86.3867 17.4508 86.3867 17.2624C86.3867 17.0741 86.425 16.8878 86.4991 16.7148C86.5733 16.5418 86.6818 16.386 86.818 16.2567C87.1215 15.9989 87.5059 15.8575 87.9032 15.8575C88.3005 15.8575 88.6849 15.9989 88.9884 16.2567C89.1247 16.386 89.2332 16.5418 89.3073 16.7148C89.3815 16.8878 89.4197 17.0741 89.4197 17.2624C89.4197 17.4508 89.3815 17.6372 89.3073 17.8101C89.2332 17.983 89.1247 18.1389 88.9884 18.2681ZM89.2271 28.8053C88.5516 28.8386 87.8842 28.6457 87.3293 28.2567C87.1017 28.0818 86.9189 27.8546 86.7964 27.5942C86.6738 27.3337 86.6149 27.0476 86.6248 26.7596V20.5424C86.6193 20.4976 86.624 20.452 86.6387 20.4093C86.6532 20.3665 86.6773 20.3278 86.7091 20.2958C86.7409 20.2638 86.7795 20.2396 86.822 20.2249C86.8645 20.2102 86.9098 20.2055 86.9543 20.211H88.8634C89.0793 20.211 89.1816 20.3253 89.1816 20.5424V25.9367C89.1816 26.371 89.3748 26.5881 89.7612 26.5881C89.9335 26.5944 90.1058 26.5751 90.2725 26.531C90.4998 26.531 90.6248 26.5996 90.6362 26.8053L90.8066 28.2338C90.8148 28.2756 90.814 28.3184 90.8043 28.3598C90.7947 28.401 90.7763 28.4399 90.7504 28.4734C90.7246 28.507 90.6918 28.5346 90.6546 28.5544C90.6172 28.5742 90.576 28.5857 90.5339 28.5881C90.1121 28.7279 89.6713 28.8012 89.2271 28.8053Z" fill="#010032"/>
<path d="M97.8298 19.9368C98.4261 19.9131 99.021 20.0102 99.5793 20.2222C100.138 20.4343 100.648 20.7569 101.08 21.1711C101.883 22.0385 102.33 23.1799 102.33 24.3654C102.33 25.5509 101.883 26.6923 101.08 27.5597C100.65 27.9776 100.14 28.3034 99.5817 28.5175C99.0231 28.7317 98.4271 28.8296 97.8298 28.8054C96.9788 28.8245 96.1449 28.5637 95.4548 28.0625V32.1882C95.4548 32.4054 95.3411 32.5082 95.1252 32.5082H93.2161C93.1726 32.5165 93.1277 32.5138 93.0853 32.5007C93.0431 32.4874 93.0045 32.4641 92.9732 32.4326C92.9419 32.401 92.9186 32.3624 92.9055 32.3198C92.8924 32.2773 92.8899 32.2321 92.8979 32.1882V22.8168C92.9113 22.7251 92.9032 22.6317 92.8743 22.5437C92.8453 22.4558 92.7962 22.3758 92.7311 22.3103C92.666 22.2448 92.5866 22.1955 92.4991 22.1664C92.4117 22.1373 92.3186 22.1291 92.2275 22.1425H91.8525C91.6025 22.1425 91.4775 22.0511 91.4775 21.8682V20.5197C91.4716 20.4362 91.4943 20.3533 91.5419 20.2847C91.5894 20.216 91.659 20.1658 91.7388 20.1425C92.1319 19.9989 92.5479 19.9291 92.9661 19.9368C93.3832 19.8997 93.8017 19.9887 94.1682 20.1922C94.5345 20.3959 94.8323 20.7049 95.0229 21.0797C95.389 20.7073 95.8267 20.4139 96.3093 20.2174C96.7919 20.0209 97.3093 19.9254 97.8298 19.9368ZM96.057 26.0739C96.2596 26.287 96.5031 26.4565 96.7726 26.5722C97.0421 26.688 97.3322 26.7477 97.6252 26.7477C97.9183 26.7477 98.2084 26.688 98.4778 26.5722C98.7474 26.4565 98.9908 26.287 99.1934 26.0739C99.6202 25.5952 99.8444 24.9679 99.8184 24.3254C99.8482 23.6824 99.6234 23.0536 99.1934 22.5768C98.9908 22.3639 98.7474 22.1944 98.4778 22.0786C98.2084 21.9627 97.9183 21.9031 97.6252 21.9031C97.3322 21.9031 97.0421 21.9627 96.7726 22.0786C96.5031 22.1944 96.2596 22.3639 96.057 22.5768C95.6436 23.0621 95.4284 23.6869 95.4548 24.3254C95.4317 24.9634 95.6466 25.5871 96.057 26.0739Z" fill="#010032"/>
<path d="M107.694 28.8053C106.674 28.8474 105.662 28.6021 104.773 28.0967C104.417 27.8807 104.113 27.5866 103.885 27.2365C103.657 26.8863 103.51 26.4889 103.455 26.0738C103.455 25.8453 103.535 25.731 103.785 25.731H105.455C105.535 25.7342 105.612 25.7592 105.678 25.8037C105.744 25.848 105.797 25.9098 105.83 25.9824C106.069 26.5996 106.694 26.9081 107.694 26.9081C108.043 26.9242 108.39 26.8535 108.705 26.7024C108.814 26.653 108.907 26.5749 108.975 26.4762C109.043 26.3776 109.083 26.2622 109.091 26.1424C109.091 25.8453 108.91 25.6396 108.546 25.5024C108.115 25.3581 107.669 25.2622 107.216 25.2167C106.681 25.1557 106.149 25.0602 105.626 24.931C105.116 24.8151 104.653 24.5484 104.296 24.1653C104.086 23.9049 103.931 23.6038 103.841 23.2807C103.751 22.9576 103.729 22.6193 103.775 22.2871C103.821 21.9548 103.934 21.6354 104.108 21.3492C104.281 21.0628 104.512 20.8154 104.785 20.6224C105.604 20.0977 106.565 19.8421 107.535 19.891C108.474 19.8591 109.403 20.0927 110.216 20.5653C110.544 20.7521 110.827 21.0101 111.043 21.3205C111.259 21.6309 111.404 21.9858 111.466 22.3596C111.466 22.5881 111.364 22.7024 111.16 22.7024H109.478C109.407 22.7066 109.337 22.6893 109.276 22.6526C109.215 22.6159 109.167 22.5615 109.137 22.4967C109.025 22.2261 108.813 22.0092 108.546 21.891C108.245 21.7326 107.908 21.6538 107.569 21.6624C107.236 21.6442 106.903 21.7111 106.603 21.8567C106.497 21.8978 106.406 21.9698 106.341 22.0636C106.276 22.1573 106.241 22.2684 106.239 22.3824C106.246 22.5388 106.303 22.6886 106.402 22.81C106.5 22.9313 106.634 23.0177 106.785 23.0567C107.221 23.2222 107.675 23.3372 108.137 23.3996C108.668 23.47 109.196 23.5692 109.716 23.6967C110.226 23.8127 110.689 24.0793 111.046 24.4624C111.237 24.6735 111.385 24.9205 111.48 25.1893C111.576 25.458 111.617 25.7431 111.603 26.0281C111.613 26.4232 111.52 26.8141 111.335 27.1626C111.15 27.5111 110.878 27.8054 110.546 28.0167C109.697 28.5649 108.702 28.8399 107.694 28.8053Z" fill="#010032"/>
<path d="M123.613 28.2339C123.62 28.2745 123.618 28.316 123.609 28.3559C123.599 28.3959 123.582 28.4334 123.557 28.4664C123.533 28.4994 123.502 28.5272 123.467 28.5481C123.432 28.569 123.393 28.5826 123.352 28.5882C122.937 28.7245 122.504 28.7977 122.068 28.8054C121.636 28.8504 121.2 28.7825 120.802 28.6083C120.403 28.4342 120.057 28.1595 119.795 27.8111C118.993 28.5051 117.954 28.8613 116.898 28.8054C116.407 28.8281 115.917 28.7473 115.459 28.5682C115.001 28.3891 114.585 28.1157 114.238 27.7654C113.894 27.3984 113.627 26.9653 113.453 26.492C113.28 26.0187 113.203 25.5151 113.227 25.0111V20.5425C113.227 20.3254 113.329 20.2111 113.545 20.2111H115.454C115.67 20.2111 115.772 20.3254 115.772 20.5425V24.6682C115.752 25.1823 115.926 25.6849 116.261 26.0739C116.428 26.2522 116.632 26.3923 116.857 26.485C117.082 26.5777 117.325 26.6207 117.568 26.6111C117.817 26.6221 118.066 26.5833 118.3 26.4969C118.534 26.4106 118.749 26.2785 118.932 26.1082C119.104 25.9288 119.24 25.7155 119.327 25.4816C119.416 25.2477 119.454 24.9981 119.443 24.7482V20.5425C119.443 20.3254 119.545 20.2111 119.761 20.2111H121.693C121.909 20.2111 122.011 20.3254 122.011 20.5425V25.9254C122.011 26.3711 122.204 26.5882 122.579 26.5882C122.755 26.5951 122.932 26.5759 123.102 26.5311C123.145 26.519 123.191 26.5168 123.234 26.5248C123.278 26.5327 123.319 26.5505 123.355 26.5769C123.392 26.6033 123.421 26.6376 123.443 26.6771C123.463 26.7167 123.475 26.7606 123.477 26.8054L123.613 28.2339Z" fill="#010032"/>
<path d="M141.67 28.2338C141.68 28.2748 141.682 28.3175 141.674 28.3589C141.665 28.4001 141.648 28.4392 141.623 28.473C141.598 28.5069 141.566 28.5348 141.528 28.5546C141.492 28.5746 141.451 28.5861 141.409 28.5881C140.986 28.7263 140.546 28.7996 140.102 28.8053C139.426 28.8404 138.759 28.6473 138.204 28.2567C137.965 28.0894 137.77 27.8653 137.637 27.6041C137.504 27.343 137.437 27.0528 137.443 26.7596V24.0738C137.467 23.5614 137.296 23.0589 136.966 22.6681C136.807 22.4895 136.609 22.3487 136.39 22.2558C136.169 22.163 135.932 22.1204 135.693 22.131C135.478 22.1229 135.265 22.1639 135.067 22.251C134.87 22.3381 134.696 22.469 134.557 22.6338C134.257 23.0168 134.103 23.4954 134.125 23.9824V28.1996C134.125 28.4167 134.023 28.531 133.807 28.531H131.886C131.842 28.5366 131.796 28.5318 131.754 28.5172C131.711 28.5024 131.673 28.4782 131.641 28.4462C131.609 28.4143 131.585 28.3754 131.57 28.3327C131.555 28.29 131.551 28.2445 131.557 28.1996V24.0738C131.582 23.567 131.424 23.068 131.113 22.6681C130.975 22.5001 130.801 22.3649 130.604 22.2721C130.409 22.1793 130.194 22.1311 129.977 22.131C129.745 22.1216 129.515 22.1615 129.299 22.2482C129.083 22.3349 128.888 22.4663 128.727 22.6338C128.402 23.0046 128.235 23.4889 128.261 23.9824V28.1996C128.267 28.2445 128.262 28.29 128.248 28.3327C128.233 28.3754 128.209 28.4143 128.177 28.4462C128.145 28.4782 128.107 28.5024 128.065 28.5172C128.021 28.5318 127.976 28.5366 127.932 28.531H126.079C125.863 28.531 125.761 28.4167 125.761 28.1996V22.8167C125.775 22.725 125.767 22.6316 125.737 22.5436C125.709 22.4557 125.66 22.3757 125.594 22.3102C125.529 22.2447 125.45 22.1954 125.362 22.1663C125.275 22.1372 125.182 22.129 125.091 22.1424H124.716C124.466 22.1424 124.341 22.051 124.341 21.8681V20.5196C124.335 20.4361 124.358 20.3532 124.405 20.2846C124.453 20.2159 124.523 20.1657 124.602 20.1424C124.995 19.9988 125.411 19.929 125.829 19.9367C126.23 19.9023 126.634 19.9828 126.992 20.1688C127.35 20.3549 127.648 20.6389 127.852 20.9881C128.235 20.6228 128.69 20.3407 129.186 20.1598C129.683 19.9789 130.211 19.903 130.738 19.9367C131.251 19.9116 131.761 20.0081 132.229 20.2186C132.698 20.4292 133.109 20.7476 133.432 21.1481C133.808 20.737 134.27 20.4152 134.785 20.2056C135.3 19.9961 135.854 19.9044 136.409 19.9367C136.904 19.9134 137.4 19.9937 137.863 20.1728C138.327 20.3518 138.749 20.6255 139.102 20.9767C139.448 21.343 139.715 21.776 139.888 22.2495C140.062 22.7229 140.14 23.227 140.113 23.731V25.9367C140.113 26.371 140.307 26.5881 140.67 26.5881C140.846 26.5964 141.023 26.5772 141.193 26.531C141.428 26.531 141.553 26.6224 141.568 26.8053L141.67 28.2338Z" fill="#010032"/>
<path d="M8.42099 18.7254C9.25936 15.3365 11.201 12.327 13.9368 10.1763C16.6726 8.02557 20.0452 6.85718 23.5176 6.85718C26.99 6.85718 30.3626 8.02557 33.0984 10.1763C35.8342 12.327 37.7758 15.3365 38.6142 18.7254H37.2505C34.9502 18.6913 32.697 19.3827 30.8074 20.7025C30.6983 20.7819 30.5844 20.8545 30.4664 20.9197H30.3074C30.1894 20.8545 30.0755 20.7819 29.9664 20.7025C28.0601 19.4133 25.8148 18.7247 23.5176 18.7247C21.2203 18.7247 18.9751 19.4133 17.0687 20.7025C16.9596 20.7819 16.8458 20.8545 16.7278 20.9197H16.5687C16.4508 20.8545 16.3369 20.7819 16.2278 20.7025C14.3381 19.3827 12.085 18.6913 9.78462 18.7254H8.42099ZM34.796 25.8911C35.496 25.3429 36.3636 25.056 37.2505 25.0797H39.0801V21.4111H37.2505C35.6883 21.3921 34.1618 21.8811 32.8983 22.8054C32.1872 23.3326 31.3271 23.617 30.4437 23.617C29.5603 23.617 28.7002 23.3326 27.9892 22.8054C26.6936 21.8984 25.1529 21.4121 23.5744 21.4121C21.9959 21.4121 20.4552 21.8984 19.1596 22.8054C18.4486 23.3326 17.5885 23.617 16.7051 23.617C15.8217 23.617 14.9616 23.3326 14.2505 22.8054C12.9714 21.8693 11.423 21.3797 9.84144 21.4111H7.95508V25.0797H9.78462C10.6716 25.056 11.5392 25.3429 12.2392 25.8911C13.5324 26.7987 15.0713 27.2854 16.6483 27.2854C18.2252 27.2854 19.7642 26.7987 21.0574 25.8911C21.7583 25.3446 22.6252 25.0579 23.5119 25.0797C24.3992 25.0541 25.2674 25.3411 25.9664 25.8911C27.262 26.7982 28.8027 27.2843 30.3812 27.2843C31.9597 27.2843 33.5004 26.7982 34.796 25.8911ZM34.796 32.4511C35.496 31.9029 36.3636 31.616 37.2505 31.6397H39.0801V27.9711H37.2505C35.6883 27.9521 34.1618 28.4411 32.8983 29.3654C32.1872 29.8926 31.3271 30.177 30.4437 30.177C29.5603 30.177 28.7002 29.8926 27.9892 29.3654C26.6936 28.4584 25.1529 27.9722 23.5744 27.9722C21.9959 27.9722 20.4552 28.4584 19.1596 29.3654C18.4486 29.8926 17.5885 30.177 16.7051 30.177C15.8217 30.177 14.9616 29.8926 14.2505 29.3654C12.9714 28.4294 11.423 27.9397 9.84144 27.9711H7.95508V31.6397H9.78462C10.6716 31.616 11.5392 31.9029 12.2392 32.4511C13.5324 33.3587 15.0713 33.8454 16.6483 33.8454C18.2252 33.8454 19.7642 33.3587 21.0574 32.4511C21.7583 31.9046 22.6252 31.6179 23.5119 31.6397C24.3992 31.6141 25.2674 31.9011 25.9664 32.4511C27.262 33.3582 28.8027 33.8443 30.3812 33.8443C31.9597 33.8443 33.5004 33.3582 34.796 32.4511Z" fill="#010032"/>
</svg>
