<svg width="168" height="36" viewBox="0 0 168 36" fill="none" xmlns="http://www.w3.org/2000/svg">
<path d="M26.9032 16.0452C26.4484 16.5027 26.1001 17.055 25.8832 17.6624C25.6662 18.27 25.5859 18.9179 25.648 19.5599L25.6264 19.5383C25.6903 20.2943 25.5883 21.0548 25.3277 21.7673C25.0672 22.4795 24.6544 23.1265 24.1181 23.6629C23.5817 24.1992 22.9348 24.6121 22.2223 24.8725C21.51 25.133 20.7493 25.235 19.9936 25.1712L20.0152 25.1928C19.1112 25.1086 18.2031 25.3054 17.4148 25.7562C16.6267 26.207 15.9967 26.8899 15.6108 27.712C15.225 28.5339 15.102 29.4548 15.2587 30.3493C15.4156 31.2437 15.8444 32.068 16.4868 32.7097C17.1291 33.3515 17.9537 33.7795 18.8482 33.9354C19.7428 34.0913 20.6635 33.9675 21.4852 33.581C22.3069 33.1944 22.9892 32.5639 23.4392 31.7753C23.8894 30.9866 24.0853 30.0784 24.0004 29.1744L24.0232 29.196C23.9593 28.4402 24.0612 27.6796 24.3218 26.9671C24.5823 26.2548 24.9952 25.6079 25.5315 25.0715C26.0679 24.5351 26.7148 24.1222 27.4272 23.8619C28.1395 23.6013 28.9001 23.4993 29.656 23.5631L29.6332 23.5415C30.3717 23.608 31.1151 23.4868 31.7944 23.1895C32.4736 22.8921 33.0669 22.4281 33.5191 21.8405C33.9712 21.2528 34.2678 20.5604 34.3811 19.8277C34.4945 19.0948 34.4211 18.3453 34.1677 17.6483C33.9142 16.9516 33.4889 16.3299 32.9312 15.8411C32.3737 15.3524 31.7017 15.0123 30.9776 14.8525C30.2535 14.6927 29.5007 14.7181 28.7891 14.9266C28.0775 15.1351 27.4301 15.5198 26.9068 16.0452H26.9032Z" fill="#010032"/>
<path d="M18.0499 22.3631L18.0271 22.3415C18.6695 22.4063 19.3182 22.3274 19.9265 22.1107C20.5346 21.894 21.0871 21.5449 21.5438 21.0885C22.0004 20.6322 22.3501 20.0799 22.5672 19.4719C22.7844 18.8639 22.8637 18.2152 22.7995 17.5727L22.8223 17.5943C22.7585 16.8385 22.8604 16.0779 23.1208 15.3655C23.3813 14.6531 23.7943 14.0062 24.3305 13.4698C24.867 12.9336 25.5139 12.5207 26.2262 12.2602C26.9387 11.9996 27.6992 11.8978 28.4551 11.9616L28.4323 11.94C29.3365 12.0249 30.2448 11.8287 31.0335 11.3785C31.8222 10.9282 32.4527 10.2455 32.8391 9.42367C33.2255 8.60183 33.349 7.6808 33.1927 6.78619C33.0365 5.89157 32.6081 5.06695 31.9659 4.42479C31.3237 3.78264 30.499 3.35418 29.6045 3.19792C28.7098 3.04165 27.7889 3.16514 26.967 3.55156C26.1451 3.93798 25.4626 4.56852 25.0122 5.35717C24.5619 6.1458 24.3658 7.05417 24.4507 7.95835L24.4291 7.93554C24.493 8.69142 24.3913 9.4521 24.1309 10.1646C23.8705 10.8771 23.4576 11.5241 22.9213 12.0606C22.3849 12.5968 21.7378 13.0097 21.0255 13.2702C20.3129 13.5305 19.5522 13.6323 18.7963 13.5683L18.8179 13.5911C18.1755 13.5265 17.5267 13.6053 16.9186 13.8221C16.3103 14.0386 15.7579 14.3878 15.3012 14.8442C14.8445 15.3006 14.4949 15.8528 14.2777 16.4609C14.0606 17.0689 13.9813 17.7174 14.0455 18.3599L14.0239 18.3383C14.0875 19.0941 13.9854 19.8547 13.7249 20.567C13.4642 21.2792 13.0514 21.9261 12.5152 22.4624C11.9788 22.9986 11.3319 23.4115 10.6197 23.6721C9.90738 23.9327 9.14686 24.0347 8.3911 23.9712L8.4127 23.9928C7.50853 23.9078 6.60016 24.1038 5.81151 24.5542C5.02287 25.0046 4.39233 25.6871 4.00592 26.509C3.61949 27.3309 3.49599 28.2519 3.65227 29.1465C3.80854 30.0411 4.23699 30.8657 4.87915 31.5079C5.52131 32.1501 6.34593 32.5785 7.24054 32.7347C8.13516 32.891 9.05618 32.7675 9.87802 32.3811C10.6999 31.9947 11.3825 31.3642 11.8328 30.5756C12.2832 29.7868 12.4792 28.8785 12.3943 27.9744L12.4171 27.996C12.3532 27.2401 12.4553 26.4795 12.7158 25.767C12.9762 25.0548 13.3891 24.4079 13.9254 23.8715C14.4618 23.3351 15.1087 22.9222 15.821 22.6619C16.5334 22.4013 17.294 22.2993 18.0499 22.3631Z" fill="#010032"/>
<path d="M10.0078 19.9548C10.4626 19.4973 10.8108 18.945 11.0276 18.3375C11.2444 17.7299 11.3243 17.082 11.2618 16.44L11.2846 16.4616C11.2207 15.7056 11.3227 14.9446 11.5833 14.2321C11.8439 13.5195 12.2571 12.8725 12.7937 12.3361C13.3304 11.7997 13.9775 11.3869 14.6902 11.1266C15.4028 10.8662 16.1638 10.7646 16.9198 10.8287L16.8969 10.8072C17.8008 10.8918 18.7088 10.6956 19.4971 10.2454C20.2854 9.7951 20.9156 9.11263 21.3018 8.29103C21.688 7.46944 21.8113 6.54874 21.6551 5.65446C21.4989 4.76018 21.0705 3.93588 20.4285 3.29395C19.7867 2.65202 18.9623 2.22371 18.0681 2.06746C17.1738 1.91118 16.253 2.03456 15.4315 2.42074C14.6099 2.80693 13.9275 3.43714 13.4772 4.22541C13.0269 5.0137 12.8306 5.92169 12.9153 6.82555L12.8937 6.80395C12.9576 7.55977 12.8556 8.32041 12.595 9.0328C12.3346 9.74515 11.9218 10.3921 11.3854 10.9285C10.8491 11.4648 10.2021 11.8776 9.48976 12.1381C8.77742 12.3986 8.01679 12.5006 7.26097 12.4368L7.28256 12.4584C6.54405 12.3921 5.80076 12.5135 5.12158 12.8109C4.44241 13.1084 3.8493 13.5726 3.39726 14.1603C2.9452 14.748 2.64883 15.4404 2.53557 16.173C2.42232 16.9059 2.49587 17.6554 2.7494 18.3521C3.00293 19.049 3.42824 19.6704 3.98592 20.1591C4.54359 20.6478 5.21559 20.9879 5.93965 21.1477C6.66369 21.3074 7.41637 21.2818 8.12793 21.0734C8.83948 20.8648 9.48687 20.4801 10.0102 19.9548H10.0078Z" fill="#010032"/>
<path d="M47.1812 7.98596H50.7452V25.3296H47.1812V7.98596Z" fill="#010032"/>
<path d="M52.763 19.3908C52.7581 18.1445 53.1231 16.9246 53.8119 15.8858C54.5007 14.8471 55.4823 14.0361 56.6324 13.5558C57.7825 13.0753 59.0492 12.947 60.2722 13.1872C61.4953 13.4273 62.6195 14.0249 63.5026 14.9045C64.3857 15.7839 64.9879 16.9059 65.2329 18.1279C65.478 19.35 65.3547 20.6173 64.8789 21.7693C64.4031 22.9212 63.5961 23.9062 62.5602 24.5991C61.5241 25.2921 60.3058 25.662 59.0594 25.662C58.2321 25.6715 57.4112 25.5158 56.6446 25.2043C55.878 24.8928 55.1814 24.4317 54.5952 23.8478C54.0088 23.2639 53.5449 22.569 53.2304 21.8038C52.9157 21.0385 52.7568 20.2182 52.763 19.3908ZM61.7918 19.3908C61.7769 18.8536 61.6039 18.3326 61.2948 17.8931C60.9854 17.4536 60.5534 17.115 60.0527 16.9197C59.552 16.7244 59.0049 16.681 58.4797 16.795C57.9545 16.9089 57.4744 17.1752 57.0996 17.5604C56.725 17.9456 56.4721 18.4328 56.3728 18.9611C56.2735 19.4892 56.3319 20.035 56.5411 20.5301C56.7502 21.0252 57.1006 21.4476 57.5485 21.7446C57.9965 22.0416 58.522 22.2 59.0594 22.2C59.4274 22.2098 59.7935 22.1432 60.1347 22.0046C60.4757 21.8658 60.7844 21.658 61.0411 21.3941C61.2978 21.1301 61.4971 20.8158 61.6262 20.471C61.7554 20.1263 61.8119 19.7585 61.7918 19.3908Z" fill="#010032"/>
<path d="M79.5605 13.4508V24.7309C79.5605 28.722 76.4477 30.4093 73.2882 30.4093C72.1757 30.4925 71.0618 30.2678 70.0685 29.7598C69.0754 29.2518 68.2413 28.48 67.6577 27.5293L70.6985 25.7713C70.9438 26.2668 71.3347 26.6757 71.8186 26.9432C72.3027 27.2106 72.8569 27.3238 73.4069 27.2676C73.7586 27.3164 74.1166 27.2854 74.4547 27.1771C74.7926 27.0687 75.1019 26.8857 75.3597 26.6418C75.6175 26.3977 75.817 26.0989 75.9437 25.7671C76.0704 25.4356 76.1208 25.0798 76.0913 24.726V23.6401C75.6739 24.1507 75.1428 24.5564 74.5403 24.8246C73.9378 25.0928 73.2809 25.216 72.6221 25.1845C71.0547 25.135 69.568 24.4776 68.4768 23.3514C67.3855 22.2251 66.7753 20.7184 66.7753 19.1503C66.7753 17.5821 67.3855 16.0754 68.4768 14.9491C69.568 13.8229 71.0547 13.1655 72.6221 13.116C73.2809 13.0845 73.9378 13.2077 74.5403 13.4759C75.1428 13.7441 75.6739 14.1499 76.0913 14.6604V13.4485L79.5605 13.4508ZM76.0925 19.1521C76.1165 18.5778 75.9679 18.0093 75.6662 17.5201C75.3644 17.0307 74.923 16.6429 74.3989 16.4067C73.8749 16.1703 73.2922 16.0963 72.7257 16.1939C72.1592 16.2916 71.6349 16.5565 71.2202 16.9549C70.8055 17.353 70.5196 17.8661 70.399 18.4282C70.2785 18.9903 70.3289 19.5757 70.544 20.1088C70.7589 20.642 71.1285 21.0987 71.6052 21.4201C72.0818 21.7414 72.6437 21.9128 73.2185 21.9121C73.5931 21.9382 73.9687 21.8856 74.3217 21.7577C74.6746 21.6298 74.9968 21.4293 75.2676 21.1694C75.5383 20.9093 75.7516 20.5956 75.8937 20.248C76.0358 19.9006 76.1036 19.5273 76.0925 19.1521Z" fill="#010032"/>
<path d="M81.578 19.3908C81.5732 18.1445 81.9381 16.9246 82.6271 15.8858C83.3158 14.8471 84.2974 14.0361 85.4475 13.5558C86.5975 13.0753 87.8643 12.947 89.0873 13.1872C90.3103 13.4273 91.4345 14.0249 92.3179 14.9045C93.2012 15.7839 93.8028 16.9059 94.0484 18.1279C94.2932 19.35 94.1695 20.6173 93.6944 21.7693C93.2184 22.9212 92.4109 23.9062 91.3749 24.5991C90.3389 25.2921 89.1209 25.662 87.8744 25.662C87.0472 25.6715 86.2261 25.5158 85.4598 25.2043C84.6932 24.8928 83.9964 24.4317 83.4102 23.8478C82.824 23.2639 82.36 22.569 82.0455 21.8038C81.7309 21.0385 81.572 20.2182 81.578 19.3908ZM90.6072 19.3908C90.5918 18.8536 90.4193 18.3326 90.1098 17.8931C89.8005 17.4536 89.3685 17.115 88.8678 16.9197C88.3671 16.7244 87.8199 16.681 87.2947 16.795C86.7695 16.9089 86.2896 17.1752 85.9148 17.5604C85.5401 17.9456 85.2872 18.4328 85.1878 18.9611C85.0884 19.4892 85.147 20.035 85.3562 20.5301C85.5653 21.0252 85.9157 21.4476 86.3636 21.7446C86.8115 22.0416 87.337 22.2 87.8744 22.2C88.2425 22.2098 88.6087 22.1432 88.9496 22.0046C89.2909 21.8658 89.5995 21.658 89.8562 21.3941C90.1128 21.1301 90.3122 20.8158 90.441 20.471C90.5701 20.1263 90.627 19.7585 90.6072 19.3908Z" fill="#010032"/>
<path d="M95.8341 10.2672C95.8341 9.84428 95.9588 9.43082 96.1945 9.07919C96.4293 8.7275 96.7635 8.45341 97.1537 8.29157C97.5448 8.12971 97.9748 8.08736 98.3893 8.16987C98.8039 8.25239 99.1851 8.45605 99.484 8.75512C99.783 9.05417 99.9871 9.43523 100.069 9.85004C100.152 10.2648 100.11 10.6948 99.9474 11.0856C99.7857 11.4762 99.512 11.8102 99.1598 12.0452C98.8084 12.2802 98.3948 12.4056 97.972 12.4056C97.4066 12.3999 96.8665 12.1729 96.4664 11.7731C96.0662 11.3732 95.8395 10.8326 95.8341 10.2672ZM96.1936 13.4508H99.7586V25.3308H96.1891L96.1936 13.4508Z" fill="#010032"/>
<path d="M115.148 19.3908C115.188 20.176 115.075 20.9615 114.811 21.7023C114.547 22.4431 114.14 23.1244 113.612 23.7072C113.085 24.29 112.447 24.7627 111.735 25.0982C111.025 25.4337 110.254 25.6253 109.469 25.662C108.809 25.698 108.149 25.5867 107.536 25.336C106.924 25.0852 106.376 24.7014 105.93 24.2125V30.0816H102.366V13.4508H105.93V14.5668C106.376 14.0782 106.925 13.6947 107.536 13.4442C108.149 13.1937 108.809 13.0824 109.469 13.1184C110.254 13.1551 111.025 13.3466 111.736 13.6821C112.447 14.0176 113.086 14.4904 113.613 15.0733C114.141 15.6563 114.548 16.3379 114.812 17.0789C115.075 17.8198 115.189 18.6056 115.148 19.3908ZM111.584 19.3908C111.569 18.8349 111.392 18.2953 111.072 17.8397C110.754 17.3842 110.307 17.0328 109.79 16.8298C109.272 16.6266 108.706 16.5806 108.162 16.6978C107.618 16.8148 107.122 17.0896 106.733 17.4878C106.345 17.886 106.082 18.3898 105.979 18.9364C105.876 19.4829 105.936 20.0476 106.152 20.5601C106.368 21.0726 106.731 21.5099 107.194 21.8175C107.657 22.1249 108.201 22.289 108.757 22.2888C109.14 22.3059 109.521 22.2419 109.876 22.1012C110.232 21.9608 110.553 21.7466 110.82 21.473C111.087 21.1993 111.293 20.8724 111.424 20.5136C111.556 20.1547 111.61 19.772 111.584 19.3908Z" fill="#010032"/>
<path d="M126.145 21.7657C126.145 24.4981 123.77 25.662 121.205 25.662C120.168 25.7559 119.127 25.5367 118.216 25.0326C117.306 24.5287 116.568 23.763 116.096 22.8349L119.184 21.0769C119.309 21.5058 119.577 21.8791 119.944 22.1342C120.311 22.3893 120.755 22.5109 121.2 22.4785C122.055 22.4785 122.483 22.2168 122.483 21.7429C122.483 20.4348 116.637 21.1249 116.637 17.0148C116.637 14.4241 118.824 13.1185 121.295 13.1185C122.224 13.089 123.143 13.3093 123.958 13.7564C124.773 14.2035 125.453 14.8609 125.927 15.6601L122.886 17.2992C122.753 16.9881 122.531 16.723 122.247 16.5371C121.964 16.3513 121.633 16.2529 121.295 16.2541C120.676 16.2541 120.296 16.4941 120.296 16.9189C120.301 18.2737 126.145 17.3701 126.145 21.7657Z" fill="#010032"/>
<path d="M139.165 13.4508V25.3308H135.6V24.2136C135.189 24.7066 134.666 25.095 134.076 25.347C133.486 25.599 132.845 25.7074 132.204 25.6633C129.804 25.6633 127.764 23.9533 127.764 20.7432V13.4508H131.328V20.2212C131.298 20.5042 131.331 20.7903 131.423 21.0594C131.514 21.3287 131.664 21.5747 131.861 21.7803C132.058 21.9859 132.296 22.1461 132.562 22.2498C132.826 22.3536 133.11 22.3985 133.395 22.3812C134.702 22.3812 135.604 21.6216 135.604 19.9344V13.4544L139.165 13.4508Z" fill="#010032"/>
<path d="M159.601 18.0361V25.3297H156.037V18.3445C156.037 17.1565 155.467 16.3969 154.327 16.3969C153.138 16.3969 152.473 17.2285 152.473 18.6301V25.3297H148.909V18.3445C148.909 17.1565 148.34 16.3969 147.199 16.3969C146.011 16.3969 145.346 17.2285 145.346 18.6301V25.3297H141.782V13.4497H145.346V14.5416C145.716 14.0572 146.2 13.6729 146.756 13.4242C147.313 13.1753 147.922 13.0699 148.529 13.1173C149.139 13.0874 149.746 13.2161 150.292 13.4908C150.837 13.7654 151.301 14.1768 151.641 14.6845C152.036 14.1532 152.559 13.7308 153.162 13.4568C153.763 13.1826 154.426 13.0659 155.087 13.1173C157.813 13.1185 159.601 15.0661 159.601 18.0361Z" fill="#010032"/>
<path d="M162.615 13.3776C164.075 13.3776 165.26 12.1935 165.26 10.7328C165.26 9.27209 164.075 8.08801 162.615 8.08801C161.154 8.08801 159.969 9.27209 159.969 10.7328C159.969 12.1935 161.154 13.3776 162.615 13.3776Z" fill="#010032"/>
</svg>
