<svg width="56" height="56" viewBox="0 0 56 56" fill="none" xmlns="http://www.w3.org/2000/svg">
<path d="M42.9333 13.0667L41.3 14.7L42.9333 13.0667ZM7 28H9.33333H7ZM28 7V9.33333V7ZM46.6667 28H49H46.6667ZM13.0667 13.0667L14.7 14.7L13.0667 13.0667Z" stroke="#D8D8EB" stroke-width="3" stroke-linecap="round" stroke-linejoin="round"/>
<path d="M21.0007 37.3335C19.0417 35.8643 17.5948 33.816 16.8647 31.4787C16.1346 29.1415 16.1584 26.6338 16.9327 24.3108C17.707 21.9878 19.1926 19.9674 21.179 18.5356C23.1655 17.1039 25.552 16.3335 28.0007 16.3335C30.4493 16.3335 32.8358 17.1039 34.8223 18.5356C36.8087 19.9674 38.2943 21.9878 39.0686 24.3108C39.8429 26.6338 39.8667 29.1415 39.1366 31.4787C38.4065 33.816 36.9596 35.8643 35.0007 37.3335C34.0896 38.2352 33.4037 39.3388 32.9984 40.5549C32.593 41.771 32.4796 43.0654 32.6673 44.3335C32.6673 45.5711 32.1757 46.7581 31.3005 47.6333C30.4253 48.5085 29.2383 49.0001 28.0007 49.0001C26.763 49.0001 25.576 48.5085 24.7008 47.6333C23.8257 46.7581 23.334 45.5711 23.334 44.3335C23.5217 43.0654 23.4083 41.771 23.003 40.5549C22.5976 39.3388 21.9117 38.2352 21.0007 37.3335Z" stroke="#D8D8EB" stroke-width="3" stroke-linecap="round" stroke-linejoin="round"/>
<path d="M22.6309 39.6665H33.3642" stroke="#D8D8EB" stroke-width="3" stroke-linecap="round" stroke-linejoin="round"/>
</svg>
