<svg width="152" height="24" viewBox="0 0 152 24" fill="none" xmlns="http://www.w3.org/2000/svg">
<path fill-rule="evenodd" clip-rule="evenodd" d="M11.9938 1.00195C12.3745 1.00195 12.7221 1.21805 12.8906 1.55939L15.7438 7.34073L22.1233 8.26529C22.5002 8.31992 22.8133 8.58388 22.9309 8.94609C23.0486 9.30831 22.9502 9.70589 22.6774 9.97153L18.0544 14.4715L19.1444 20.8259C19.2088 21.2012 19.0544 21.5805 18.7463 21.8042C18.4381 22.0279 18.0296 22.0572 17.6927 21.8796L12.0003 18.88L6.2942 21.8801C5.95728 22.0572 5.54901 22.0277 5.24106 21.804C4.9331 21.5802 4.77888 21.2011 4.84324 20.8259L5.93327 14.4715L1.31033 9.97153C1.03743 9.70589 0.939108 9.30831 1.05674 8.94609C1.17436 8.58388 1.48752 8.31992 1.86441 8.26529L8.24388 7.34073L11.0971 1.55939C11.2656 1.21805 11.6132 1.00195 11.9938 1.00195Z" fill="#F5DB76"/>
<path fill-rule="evenodd" clip-rule="evenodd" d="M43.9938 1.00195C44.3745 1.00195 44.7221 1.21805 44.8906 1.55939L47.7438 7.34073L54.1233 8.26529C54.5002 8.31992 54.8133 8.58388 54.9309 8.94609C55.0486 9.30831 54.9502 9.70589 54.6774 9.97153L50.0544 14.4715L51.1444 20.8259C51.2088 21.2012 51.0544 21.5805 50.7463 21.8042C50.4381 22.0279 50.0296 22.0572 49.6927 21.8796L44.0003 18.88L38.2942 21.8801C37.9573 22.0572 37.549 22.0277 37.2411 21.804C36.9331 21.5802 36.7789 21.2011 36.8432 20.8259L37.9333 14.4715L33.3103 9.97153C33.0374 9.70589 32.9391 9.30831 33.0567 8.94609C33.1744 8.58388 33.4875 8.31992 33.8644 8.26529L40.2439 7.34073L43.0971 1.55939C43.2656 1.21805 43.6132 1.00195 43.9938 1.00195Z" fill="#F5DB76"/>
<path fill-rule="evenodd" clip-rule="evenodd" d="M75.9938 1.00195C76.3745 1.00195 76.7221 1.21805 76.8906 1.55939L79.7438 7.34073L86.1233 8.26529C86.5002 8.31992 86.8133 8.58388 86.9309 8.94609C87.0486 9.30831 86.9502 9.70589 86.6774 9.97153L82.0544 14.4715L83.1444 20.8259C83.2088 21.2012 83.0544 21.5805 82.7463 21.8042C82.4381 22.0279 82.0296 22.0572 81.6927 21.8796L76.0003 18.88L70.2942 21.8801C69.9573 22.0572 69.549 22.0277 69.2411 21.804C68.9331 21.5802 68.7789 21.2011 68.8432 20.8259L69.9333 14.4715L65.3103 9.97153C65.0374 9.70589 64.9391 9.30831 65.0567 8.94609C65.1744 8.58388 65.4875 8.31992 65.8644 8.26529L72.2439 7.34073L75.0971 1.55939C75.2656 1.21805 75.6132 1.00195 75.9938 1.00195Z" fill="#F5DB76"/>
<path fill-rule="evenodd" clip-rule="evenodd" d="M107.994 1.00195C108.374 1.00195 108.722 1.21805 108.891 1.55939L111.744 7.34073L118.123 8.26529C118.5 8.31992 118.813 8.58388 118.931 8.94609C119.049 9.30831 118.95 9.70589 118.677 9.97153L114.054 14.4715L115.144 20.8259C115.209 21.2012 115.054 21.5805 114.746 21.8042C114.438 22.0279 114.03 22.0572 113.693 21.8796L108 18.88L102.294 21.8801C101.957 22.0572 101.549 22.0277 101.241 21.804C100.933 21.5802 100.779 21.2011 100.843 20.8259L101.933 14.4715L97.3103 9.97153C97.0374 9.70589 96.9391 9.30831 97.0567 8.94609C97.1744 8.58388 97.4875 8.31992 97.8644 8.26529L104.244 7.34073L107.097 1.55939C107.266 1.21805 107.613 1.00195 107.994 1.00195Z" fill="#F5DB76"/>
<path fill-rule="evenodd" clip-rule="evenodd" d="M139.994 1.00195C140.374 1.00195 140.722 1.21805 140.891 1.55939L143.744 7.34073L150.123 8.26529C150.5 8.31992 150.813 8.58388 150.931 8.94609C151.049 9.30831 150.95 9.70589 150.677 9.97153L146.054 14.4715L147.144 20.8259C147.209 21.2012 147.054 21.5805 146.746 21.8042C146.438 22.0279 146.03 22.0572 145.693 21.8796L140 18.88L134.294 21.8801C133.957 22.0572 133.549 22.0277 133.241 21.804C132.933 21.5802 132.779 21.2011 132.843 20.8259L133.933 14.4715L129.31 9.97153C129.037 9.70589 128.939 9.30831 129.057 8.94609C129.174 8.58388 129.488 8.31992 129.864 8.26529L136.244 7.34073L139.097 1.55939C139.266 1.21805 139.613 1.00195 139.994 1.00195Z" fill="#F5DB76"/>
</svg>
