<svg width="158" height="40" viewBox="0 0 158 40" fill="none" xmlns="http://www.w3.org/2000/svg">
<path d="M18.218 7.82349V2.82349H2.41797V37.1765H18.218V32.1765C14.9813 32.1765 11.8772 30.8935 9.58862 28.61C7.29998 26.3265 6.01424 23.2294 6.01424 20C6.01424 16.7706 7.29998 13.6734 9.58862 11.3899C11.8772 9.10637 14.9813 7.82349 18.218 7.82349Z" fill="#010032"/>
<path d="M18.2168 7.82349V32.1765C21.4534 32.1765 24.5576 30.8935 26.8462 28.61C29.1348 26.3265 30.4205 23.2294 30.4205 20C30.4205 16.7706 29.1348 13.6734 26.8462 11.3899C24.5576 9.10637 21.4534 7.82349 18.2168 7.82349Z" fill="#010032"/>
<path d="M39.2871 10.8824H42.8244V27.8824H39.2871V10.8824Z" fill="#010032"/>
<path d="M44.8052 22.0588C44.8052 20.8358 45.1692 19.6402 45.851 18.6238C46.5328 17.6073 47.5016 16.8156 48.6349 16.3492C49.7681 15.8828 51.0145 15.7626 52.2163 16.0038C53.418 16.2449 54.5209 16.8367 55.3852 17.704C56.2495 18.5714 56.8364 19.6752 57.0712 20.8756C57.306 22.0761 57.1784 23.3191 56.7044 24.4471C56.2304 25.5749 55.4316 26.5372 54.4089 27.2115C53.3863 27.886 52.186 28.2422 50.9602 28.2353C50.1472 28.2416 49.341 28.086 48.5891 27.7773C47.8372 27.4687 47.1545 27.0134 46.5812 26.4382C46.0079 25.8629 45.5556 25.1792 45.2506 24.4272C44.9457 23.6752 44.7943 22.87 44.8052 22.0588ZM53.6721 22.0588C53.6582 21.5315 53.4888 21.02 53.185 20.5884C52.8813 20.1566 52.4568 19.8238 51.9644 19.6315C51.4721 19.4393 50.934 19.3961 50.4173 19.5075C49.9005 19.6188 49.4282 19.8796 49.0592 20.2575C48.6903 20.6353 48.4411 21.1132 48.343 21.6315C48.2449 22.1499 48.3021 22.6855 48.5075 23.1715C48.7129 23.6575 49.0573 24.0725 49.4978 24.3641C49.9382 24.6559 50.455 24.8115 50.9838 24.8118C51.3437 24.8188 51.7012 24.7516 52.034 24.6145C52.3667 24.4774 52.6675 24.2733 52.9176 24.0149C53.1677 23.7566 53.3617 23.4494 53.4875 23.1129C53.6133 22.7764 53.6681 22.4175 53.6485 22.0588H53.6721Z" fill="#010032"/>
<path d="M71.1111 16.2352V27.3058C71.1111 31.2117 68.0455 32.8705 64.9444 32.8705C63.8506 32.96 62.7534 32.7432 61.7765 32.2444C60.7995 31.7455 59.9815 30.9845 59.4144 30.047L62.3976 28.3293C62.6393 28.8157 63.0238 29.2168 63.4999 29.4795C63.976 29.7423 64.521 29.854 65.0623 29.7999C65.4072 29.8423 65.7572 29.8081 66.0872 29.6999C66.4174 29.5915 66.7193 29.4119 66.9717 29.1735C67.2241 28.9352 67.4205 28.6443 67.5471 28.3213C67.6736 27.9985 67.727 27.6517 67.7035 27.3058V26.2352C67.2919 26.7332 66.7696 27.1285 66.1781 27.3899C65.5866 27.6513 64.9422 27.7715 64.2959 27.7411C62.7323 27.7411 61.2328 27.1213 60.1272 26.0181C59.0215 24.9151 58.4004 23.4188 58.4004 21.8587C58.4004 20.2986 59.0215 18.8025 60.1272 17.6993C61.2328 16.5961 62.7323 15.9764 64.2959 15.9764C64.9422 15.9459 65.5866 16.0661 66.1781 16.3275C66.7696 16.589 67.2919 16.9843 67.7035 17.4823V16.3058L71.1111 16.2352ZM67.7035 21.8234C67.727 21.2606 67.5813 20.7035 67.2849 20.224C66.9886 19.7445 66.5554 19.3644 66.0408 19.1325C65.5262 18.9006 64.954 18.8277 64.3974 18.923C63.841 19.0183 63.3258 19.2774 62.9181 19.6672C62.5105 20.057 62.2291 20.5595 62.11 21.1103C61.9909 21.661 62.0396 22.2345 62.2498 22.7573C62.4602 23.2801 62.8224 23.7283 63.2899 24.044C63.7575 24.3598 64.3091 24.5288 64.8737 24.5293C65.2422 24.5558 65.612 24.5048 65.9594 24.3799C66.3069 24.2548 66.6243 24.0585 66.8909 23.8034C67.1576 23.5485 67.3677 23.2405 67.5077 22.8994C67.6476 22.5584 67.7144 22.1918 67.7035 21.8234Z" fill="#010032"/>
<path d="M73.1039 22.0588C73.1039 20.8367 73.4673 19.6421 74.148 18.6261C74.8287 17.6101 75.7962 16.8185 76.928 16.3514C78.0598 15.8842 79.3051 15.7626 80.5062 16.0019C81.7074 16.2412 82.8103 16.8306 83.6756 17.6955C84.5409 18.5606 85.1295 19.6622 85.367 20.8611C85.6045 22.06 85.4803 23.3022 85.0099 24.4306C84.5396 25.5591 83.7443 26.5228 82.7248 27.2001C81.7052 27.8774 80.5073 28.2376 79.2824 28.2353C78.4679 28.2432 77.6599 28.0887 76.9059 27.7809C76.152 27.4732 75.4672 27.0184 74.8918 26.4431C74.3163 25.8678 73.8617 25.1836 73.5547 24.4308C73.2478 23.678 73.0945 22.8715 73.1039 22.0588ZM81.9708 22.0588C81.9569 21.5311 81.7871 21.0191 81.4829 20.5871C81.1787 20.1552 80.7534 19.8224 80.2604 19.6305C79.7674 19.4386 79.2287 19.3961 78.7116 19.5085C78.1946 19.6207 77.7222 19.8828 77.3538 20.2618C76.9853 20.6407 76.7371 21.1198 76.6404 21.6388C76.5436 22.1579 76.6024 22.6939 76.8096 23.1796C77.0168 23.6655 77.3631 24.0795 77.8051 24.3699C78.2471 24.6601 78.765 24.8139 79.2942 24.8118C79.6542 24.8188 80.0117 24.7516 80.3444 24.6145C80.6772 24.4774 80.978 24.2733 81.2281 24.0149C81.4782 23.7566 81.6721 23.4494 81.7979 23.1129C81.9237 22.7764 81.9786 22.4175 81.959 22.0588H81.9708Z" fill="#010032"/>
<path d="M87.0996 13.1176C87.0996 12.7035 87.2227 12.2986 87.4533 11.9542C87.684 11.6098 88.0118 11.3414 88.3952 11.1829C88.7788 11.0244 89.2008 10.983 89.6079 11.0638C90.0149 11.1446 90.389 11.344 90.6825 11.6369C90.976 11.9298 91.1759 12.3029 91.2569 12.7091C91.3379 13.1153 91.2963 13.5364 91.1374 13.9191C90.9786 14.3016 90.7096 14.6287 90.3644 14.8588C90.0193 15.0889 89.6136 15.2118 89.1984 15.2118C88.6436 15.2056 88.1134 14.9831 87.7211 14.5916C87.3288 14.2002 87.1057 13.6712 87.0996 13.1176ZM87.4416 16.2353H90.9789V27.8824H87.4416V16.2353Z" fill="#010032"/>
<path d="M106.119 22.0588C106.158 22.8334 106.044 23.6082 105.783 24.3386C105.521 25.0689 105.117 25.7405 104.595 26.3145C104.072 26.8886 103.44 27.3538 102.737 27.6834C102.033 28.0131 101.271 28.2006 100.495 28.2353C99.8355 28.2791 99.1751 28.1738 98.5627 27.9273C97.9502 27.6807 97.4014 27.2994 96.9572 26.8118V32.5647H93.4199V16.2353H96.9572V17.3294C97.402 16.8432 97.9512 16.4636 98.5638 16.2192C99.1763 15.9746 99.8364 15.8715 100.495 15.9176C101.268 15.9524 102.027 16.1388 102.728 16.4662C103.429 16.7936 104.059 17.2558 104.581 17.826C105.104 18.3962 105.508 19.0635 105.772 19.7899C106.036 20.5161 106.154 21.2871 106.119 22.0588ZM102.582 22.0588C102.568 21.5124 102.392 20.9822 102.078 20.5348C101.763 20.0874 101.323 19.7425 100.813 19.5435C100.303 19.3445 99.745 19.3002 99.2096 19.4161C98.6742 19.532 98.1852 19.8031 97.8035 20.1952C97.4218 20.5873 97.1646 21.0831 97.0643 21.6205C96.9638 22.1578 97.0246 22.7127 97.2389 23.2158C97.4533 23.7187 97.8116 24.1474 98.2691 24.4481C98.7266 24.7488 99.2629 24.908 99.8107 24.9059C100.186 24.9218 100.56 24.8584 100.909 24.7198C101.258 24.5812 101.574 24.3706 101.835 24.1018C102.097 23.8329 102.299 23.5119 102.427 23.1599C102.556 22.8078 102.608 22.4326 102.582 22.0588Z" fill="#010032"/>
<path d="M116.885 24.3882C116.885 27.0706 114.527 28.2118 112.027 28.2118C111.007 28.3033 109.984 28.0876 109.088 27.5927C108.193 27.0978 107.467 26.3462 107.004 25.4353L110.046 23.7176C110.167 24.1374 110.428 24.5032 110.786 24.7538C111.145 25.0044 111.578 25.1245 112.015 25.0941C112.852 25.0941 113.277 24.8353 113.277 24.3647C113.277 23.0824 107.534 23.7647 107.534 19.7294C107.534 17.1882 109.68 15.9176 112.109 15.9176C113.033 15.8764 113.95 16.0854 114.764 16.5225C115.578 16.9595 116.258 17.6084 116.732 18.4L113.689 20C113.555 19.6965 113.335 19.4384 113.057 19.2567C112.779 19.0751 112.454 18.9778 112.121 18.9765C111.508 18.9765 111.143 19.2118 111.143 19.6235C111.143 20.9647 116.885 20.0824 116.885 24.3882Z" fill="#010032"/>
<path d="M129.702 16.2354V27.8825H126.164V26.7883C125.762 27.2727 125.252 27.6559 124.675 27.9073C124.097 28.1587 123.469 28.271 122.839 28.2354C120.481 28.2354 118.465 26.553 118.465 23.4119V16.2354H122.002V22.8825C121.974 23.1603 122.007 23.4409 122.099 23.7049C122.191 23.9688 122.338 24.2097 122.532 24.4112C122.726 24.6125 122.962 24.7694 123.223 24.8712C123.483 24.9728 123.763 25.0168 124.042 25.0001C125.315 25.0001 126.212 24.2472 126.212 22.6472V16.2354H129.702Z" fill="#010032"/>
<path d="M149.747 20.7294V27.8824H146.209V21.0353C146.209 19.8588 145.655 19.1294 144.535 19.1294C143.415 19.1294 142.707 19.9412 142.707 21.3176V27.8824H139.17V21.0353C139.17 19.8588 138.616 19.1294 137.496 19.1294C136.376 19.1294 135.668 19.9412 135.668 21.3176V27.8824H132.131V16.2353H135.668V17.3059C136.035 16.8329 136.512 16.4584 137.061 16.216C137.608 15.9736 138.208 15.8711 138.805 15.9176C139.402 15.8865 139.999 16.0112 140.534 16.2793C141.07 16.5474 141.526 16.9499 141.858 17.4471C142.248 16.9275 142.762 16.5148 143.354 16.2474C143.944 15.9799 144.595 15.8665 145.243 15.9176C148.002 15.9176 149.747 17.8235 149.747 20.7294Z" fill="#010032"/>
<path d="M152.717 16.1647C154.15 16.1647 155.311 15.0059 155.311 13.5765C155.311 12.1471 154.15 10.9882 152.717 10.9882C151.284 10.9882 150.123 12.1471 150.123 13.5765C150.123 15.0059 151.284 16.1647 152.717 16.1647Z" fill="#010032"/>
</svg>
