<svg width="64" height="64" viewBox="0 0 64 64" fill="none" xmlns="http://www.w3.org/2000/svg">
<g clip-path="url(#clip0_1_67)">
<path d="M64 32C64 14.3269 49.6731 0 32 0C14.3269 0 0 14.3269 0 32C0 49.6731 14.3269 64 32 64C49.6731 64 64 49.6731 64 32Z" fill="#D8D8EB" fill-opacity="0.2"/>
<path d="M25.334 47H38.6673" stroke="#D8D8EB" stroke-width="3.33333" stroke-linecap="round" stroke-linejoin="round"/>
<path d="M32 40.3333V47" stroke="#D8D8EB" stroke-width="3.33333" stroke-linecap="round" stroke-linejoin="round"/>
<path d="M23.666 18.6666H40.3327" stroke="#D8D8EB" stroke-width="3.33333" stroke-linecap="round" stroke-linejoin="round"/>
<path d="M40.3327 18.6666V32C40.3327 34.2101 39.4547 36.3297 37.8919 37.8925C36.3291 39.4553 34.2095 40.3333 31.9993 40.3333C29.7892 40.3333 27.6696 39.4553 26.1068 37.8925C24.544 36.3297 23.666 34.2101 23.666 32V18.6666" stroke="#D8D8EB" stroke-width="3.33333" stroke-linecap="round" stroke-linejoin="round"/>
<path d="M20.3333 30.3333C22.1743 30.3333 23.6667 28.8409 23.6667 27C23.6667 25.159 22.1743 23.6666 20.3333 23.6666C18.4924 23.6666 17 25.159 17 27C17 28.8409 18.4924 30.3333 20.3333 30.3333Z" stroke="#D8D8EB" stroke-width="3.33333" stroke-linecap="round" stroke-linejoin="round"/>
<path d="M43.6673 30.3333C45.5083 30.3333 47.0007 28.8409 47.0007 27C47.0007 25.159 45.5083 23.6666 43.6673 23.6666C41.8264 23.6666 40.334 25.159 40.334 27C40.334 28.8409 41.8264 30.3333 43.6673 30.3333Z" stroke="#D8D8EB" stroke-width="3.33333" stroke-linecap="round" stroke-linejoin="round"/>
</g>
<defs>
<clipPath id="clip0_1_67">
<rect width="64" height="64" fill="white"/>
</clipPath>
</defs>
</svg>
