<svg width="64" height="64" viewBox="0 0 32 32" fill="none" xmlns="http://www.w3.org/2000/svg">
<g clip-path="url(#clip0_8202_2)">
<path d="M24 0H8C3.58172 0 0 3.58172 0 8V24C0 28.4183 3.58172 32 8 32H24C28.4183 32 32 28.4183 32 24V8C32 3.58172 28.4183 0 24 0Z" fill="#7fffd4"/>
<path d="M28 22C28 18.6863 25.3137 16 22 16C18.6863 16 16 18.6863 16 22C16 25.3137 18.6863 28 22 28C25.3137 28 28 25.3137 28 22Z" fill="#010032"/>
</g>
<defs>
<clipPath id="clip0_8202_2">
<rect width="152" height="32" fill="white"/>
</clipPath>
</defs>
</svg>
