<svg width="400" height="41" viewBox="0 0 400 41" fill="none" xmlns="http://www.w3.org/2000/svg">
<g clip-path="url(#clip0_1_85)">
<path fill-rule="evenodd" clip-rule="evenodd" d="M10.986 0C11.3667 0 11.7143 0.216101 11.8828 0.557439L14.736 6.33878L21.1155 7.26334C21.4924 7.31796 21.8055 7.58192 21.9231 7.94414C22.0408 8.30635 21.9424 8.70394 21.6695 8.96957L17.0466 13.4695L18.1366 19.8239C18.201 20.1993 18.0466 20.5786 17.7384 20.8023C17.4302 21.026 17.0217 21.0552 16.6848 20.8777L10.9925 17.8781L5.28639 20.8781C4.94947 21.0553 4.5412 21.0258 4.23324 20.802C3.92529 20.5783 3.77107 20.1991 3.83543 19.8239L4.92546 13.4695L0.302517 8.96957C0.0296209 8.70394 -0.0687032 8.30635 0.0489226 7.94414C0.166548 7.58192 0.479703 7.31796 0.8566 7.26334L7.23606 6.33878L10.0893 0.557439C10.2577 0.216101 10.6054 0 10.986 0Z" fill="#4543E8"/>
</g>
<g clip-path="url(#clip1_1_85)">
<path fill-rule="evenodd" clip-rule="evenodd" d="M42.986 0C43.3667 0 43.7143 0.216101 43.8828 0.557439L46.736 6.33878L53.1155 7.26334C53.4924 7.31796 53.8055 7.58192 53.9231 7.94414C54.0408 8.30635 53.9424 8.70394 53.6695 8.96957L49.0466 13.4695L50.1366 19.8239C50.201 20.1993 50.0466 20.5786 49.7384 20.8023C49.4302 21.026 49.0217 21.0552 48.6848 20.8777L42.9925 17.8781L37.2864 20.8781C36.9495 21.0553 36.5412 21.0258 36.2332 20.802C35.9253 20.5783 35.7711 20.1991 35.8354 19.8239L36.9255 13.4695L32.3025 8.96957C32.0296 8.70394 31.9313 8.30635 32.0489 7.94414C32.1665 7.58192 32.4797 7.31796 32.8566 7.26334L39.2361 6.33878L42.0893 0.557439C42.2577 0.216101 42.6054 0 42.986 0Z" fill="#4543E8"/>
</g>
<g clip-path="url(#clip2_1_85)">
<path fill-rule="evenodd" clip-rule="evenodd" d="M74.986 0C75.3667 0 75.7143 0.216101 75.8828 0.557439L78.736 6.33878L85.1155 7.26334C85.4924 7.31796 85.8055 7.58192 85.9231 7.94414C86.0408 8.30635 85.9424 8.70394 85.6695 8.96957L81.0466 13.4695L82.1366 19.8239C82.201 20.1993 82.0466 20.5786 81.7384 20.8023C81.4302 21.026 81.0217 21.0552 80.6848 20.8777L74.9925 17.8781L69.2864 20.8781C68.9495 21.0553 68.5412 21.0258 68.2332 20.802C67.9253 20.5783 67.7711 20.1991 67.8354 19.8239L68.9255 13.4695L64.3025 8.96957C64.0296 8.70394 63.9313 8.30635 64.0489 7.94414C64.1665 7.58192 64.4797 7.31796 64.8566 7.26334L71.2361 6.33878L74.0893 0.557439C74.2577 0.216101 74.6054 0 74.986 0Z" fill="#4543E8"/>
</g>
<g clip-path="url(#clip3_1_85)">
<path fill-rule="evenodd" clip-rule="evenodd" d="M106.986 0C107.367 0 107.714 0.216101 107.883 0.557439L110.736 6.33878L117.115 7.26334C117.492 7.31796 117.806 7.58192 117.923 7.94414C118.041 8.30635 117.942 8.70394 117.67 8.96957L113.047 13.4695L114.137 19.8239C114.201 20.1993 114.047 20.5786 113.738 20.8023C113.43 21.026 113.022 21.0552 112.685 20.8777L106.993 17.8781L101.286 20.8781C100.949 21.0553 100.541 21.0258 100.233 20.802C99.9253 20.5783 99.7711 20.1991 99.8354 19.8239L100.925 13.4695L96.3025 8.96957C96.0296 8.70394 95.9313 8.30635 96.0489 7.94414C96.1665 7.58192 96.4797 7.31796 96.8566 7.26334L103.236 6.33878L106.089 0.557439C106.258 0.216101 106.605 0 106.986 0Z" fill="#4543E8"/>
</g>
<g clip-path="url(#clip4_1_85)">
<path fill-rule="evenodd" clip-rule="evenodd" d="M138.986 0C139.367 0 139.714 0.216101 139.883 0.557439L142.736 6.33878L149.115 7.26334C149.492 7.31796 149.806 7.58192 149.923 7.94414C150.041 8.30635 149.942 8.70394 149.67 8.96957L145.047 13.4695L146.137 19.8239C146.201 20.1993 146.047 20.5786 145.738 20.8023C145.43 21.026 145.022 21.0552 144.685 20.8777L138.993 17.8781L133.286 20.8781C132.949 21.0553 132.541 21.0258 132.233 20.802C131.925 20.5783 131.771 20.1991 131.835 19.8239L132.925 13.4695L128.303 8.96957C128.03 8.70394 127.931 8.30635 128.049 7.94414C128.167 7.58192 128.48 7.31796 128.857 7.26334L135.236 6.33878L138.089 0.557439C138.258 0.216101 138.605 0 138.986 0Z" fill="#4543E8"/>
</g>
<defs>
<clipPath id="clip0_1_85">
<rect width="22" height="21" fill="white"/>
</clipPath>
<clipPath id="clip1_1_85">
<rect width="22" height="21" fill="white" transform="translate(32)"/>
</clipPath>
<clipPath id="clip2_1_85">
<rect width="22" height="21" fill="white" transform="translate(64)"/>
</clipPath>
<clipPath id="clip3_1_85">
<rect width="22" height="21" fill="white" transform="translate(96)"/>
</clipPath>
<clipPath id="clip4_1_85">
<rect width="22" height="21" fill="white" transform="translate(128)"/>
</clipPath>
</defs>
</svg>
